<?xml version="1.0" encoding="utf-8"?>
<!-- Generator: Adobe Illustrator 16.0.0, SVG Export Plug-In . SVG Version: 6.00 Build 0)  -->
<!DOCTYPE svg PUBLIC "-//W3C//DTD SVG 1.1//EN" "http://www.w3.org/Graphics/SVG/1.1/DTD/svg11.dtd">
<svg version="1.1" id="Layer_1" xmlns="http://www.w3.org/2000/svg" xmlns:xlink="http://www.w3.org/1999/xlink" x="0px" y="0px"
	  viewBox="0 0 3000 3000" enable-background="new 0 0 3000 3000" xml:space="preserve">
<title>Baltimore Orioles Primary logo</title>
<g>
	<path fill="#DF4601" d="M1275.353,2903.287c-334.229,0-647.124-120.892-858.091-334.229
		c-189.633-189.633-289.191-445.638-291.562-739.569l-94.816,16.593l-4.741-16.593c-2.37-11.853-68.742-301.044,248.894-557.049
		c-85.335-199.114-165.929-564.159,165.929-846.238c35.557-35.557,59.261-49.779,75.854-64.001
		c9.481-7.111,16.593-11.853,23.704-16.594c18.963-52.148,56.89-99.558,75.854-118.521
		C720.675,118.047,853.419,101.454,858.16,99.083c18.963-2.37,37.927-4.74,56.891-4.74c101.928,0,161.188,42.667,187.263,61.631
		c2.37,2.37,2.37,2.37,4.741,2.37c11.852,2.37,26.074,4.741,45.037,4.741c18.964,0,45.038,2.37,78.225,4.74
		c187.263,23.704,346.081,111.41,474.083,256.005c42.667-4.74,213.337-28.444,298.673-47.408
		c42.667-9.481,87.705-18.963,130.373-28.444c208.596-45.038,405.34-87.706,547.566-87.706c21.332,0,40.297,0,56.889,2.371h2.371
		c101.928,18.963,180.152,73.482,213.338,154.077c71.111,170.67,26.074,303.413-154.078,448.008
		c-215.707,173.041-523.861,263.117-699.273,303.414c2.371,14.223,7.111,40.297,18.965,82.965
		c42.666-4.741,87.705-4.741,130.373-4.741c350.82,0,576.01,128.003,590.232,253.635c2.371,42.667-28.443,92.446-101.928,113.78
		c-315.266,82.964-379.266,237.041-462.23,597.345c-49.779,213.338-175.412,391.119-369.785,514.381
		C1732.844,2841.656,1507.654,2903.287,1275.353,2903.287"/>
	<path fill="#FFFFFF" d="M915.05,113.306c104.298,0,163.559,49.779,184.892,64.002c28.445,9.481,59.261,2.37,128.003,11.852
		c118.521,16.593,305.785,66.372,469.343,258.375c0,0,210.967-28.444,310.524-47.407c251.264-52.149,504.898-113.78,673.197-113.78
		c18.965,0,37.928,0,54.52,2.37c106.67,18.964,173.041,78.224,199.115,144.596c73.484,175.41,14.223,296.302-146.965,426.675
		c-201.486,161.188-495.418,256.005-706.385,305.784c0,0,2.371,33.186,26.074,116.15c49.779-4.741,97.188-7.111,142.227-7.111
		c341.34,0,559.418,123.262,571.27,237.042c2.371,33.186-23.703,75.853-90.076,94.816
		c-324.746,85.335-393.488,248.894-476.453,611.567c-101.928,445.639-533.344,673.198-981.353,673.198
		c-557.048,0-1135.43-350.821-1133.06-1076.169l-99.558,16.593c0,0-71.112-293.932,253.635-547.566
		c-59.26-132.743-206.227-530.974,154.077-836.757c56.89-54.52,78.224-61.631,104.299-82.965
		c16.593-49.778,52.148-97.188,73.482-116.15C727.787,144.121,855.79,127.528,855.79,127.528
		C879.494,115.677,898.457,113.306,915.05,113.306 M915.05,77.75c-18.964,0-40.298,2.37-59.261,4.74
		c-11.853,2.371-144.596,21.334-251.265,132.744c-18.963,18.963-56.89,66.371-78.224,120.891
		c-4.741,4.741-11.852,9.482-18.963,14.223c-18.964,11.853-40.298,28.445-78.224,64.001
		c-163.559,137.484-246.524,308.154-246.524,509.64c0,109.039,23.705,225.19,71.113,343.711
		C92.515,1400.442,33.254,1540.297,11.921,1639.854c-23.704,111.409-4.741,192.004-4.741,194.374l7.111,33.187l33.186-4.741
		l59.261-9.481c7.111,289.19,109.039,540.455,298.672,730.088c215.709,215.708,533.345,338.97,869.943,338.97
		c234.672,0,462.232-61.631,640.013-175.411c196.745-125.632,327.118-308.153,376.896-526.232
		c82.965-360.303,142.227-504.898,448.01-583.122c85.334-23.704,120.891-82.965,116.15-132.743
		c-7.111-71.113-75.854-139.855-184.893-189.634c-78.225-35.557-218.078-78.224-424.305-78.224c-37.926,0-75.854,2.37-116.15,4.74
		c-4.74-21.333-9.482-35.556-11.852-49.778c180.15-42.667,476.453-135.114,687.42-303.413
		c187.264-149.337,234.672-289.191,158.818-469.343c-35.557-85.335-118.521-146.966-227.561-165.929h-4.74
		c-18.963-2.371-37.926-2.371-59.26-2.371c-144.596,0-341.342,42.668-549.938,87.706c-42.668,9.481-87.705,18.963-130.373,28.444
		c-80.594,16.593-234.671,37.927-286.82,45.038c-123.262-149.336-284.45-234.671-474.083-260.746
		c-33.187-4.74-59.261-4.74-80.595-4.74c-16.593,0-28.444,0-37.926-2.371c0,0-2.371,0-2.371-2.37
		C1085.72,122.788,1021.718,77.75,915.05,77.75"/>
	<path d="M2401.301,1507.111c-350.82,194.374-327.117,445.639-720.605,549.937c-445.639,116.15-805.943-182.521-545.197-241.782
		c61.631-11.853,68.742-49.779,2.37-37.927c-156.447,9.481-357.933,90.076-168.299,402.971c0,0,26.074,11.853,37.926,0
		c0,0-71.112-158.817-16.593-203.855c251.265,239.412,810.683,282.079,1161.505-184.893
		c118.52-156.447,256.004-246.523,388.748-301.043c-213.338-52.149-455.121-56.891-587.863-16.593
		c-16.593-210.968-28.445-270.228-68.742-360.304c-18.963-40.297-21.334-64.001,71.112-90.076
		c56.891-16.593,293.931-71.112,497.788-163.559c144.596-66.372,244.152-139.854,270.227-165.93
		c21.334-18.963,97.188-104.298,68.742-173.04s-97.188-73.483-180.15-66.372c-71.113,7.111-104.299,9.482-547.566,106.669
		c-232.302,47.409-365.045,49.779-448.01,75.854c0,0-109.039-265.486-471.713-277.339c-47.408,0-123.262-9.481-161.188-47.408
		c-40.297-30.815-111.409-26.074-170.67,7.111c-45.038,23.704-82.964,61.631-90.075,97.188
		c-16.594,61.631-37.927,56.89-123.262,128.002c-106.669,87.706-350.822,282.08-80.595,777.497
		c-246.523,142.225-282.08,308.154-282.08,308.154l113.78-7.111c-16.593,30.815-30.815,132.743-30.815,177.781
		c-2.37,258.375,75.854,471.713,234.672,632.901c173.04,175.411,436.156,277.339,715.866,277.339
		c196.744,0,386.377-52.149,533.344-144.596c66.371-42.668,125.632-94.816,170.67-154.077
		c-564.16,350.822-1080.911,52.149-1185.209-246.523c-101.928-291.562,80.595-516.751,312.896-462.231
		c324.747,78.224,495.417,33.187,545.197-123.262c40.297,14.223,132.743,11.853,189.633-16.593
		C1922.478,1526.074,2119.223,1454.962,2401.301,1507.111"/>
	<path fill="#DF4601" d="M787.047,464.128l177.781-66.372C964.829,397.756,832.085,295.828,787.047,464.128 M1204.241,940.581
		c0,0,272.598-210.967,578.382-246.523c284.449-35.556,737.199-135.113,737.199-135.113s-220.449,132.743-440.898,286.82
		c-239.411,142.226-414.822,201.485-692.161,194.374C1206.611,1016.435,1088.09,1016.435,1204.241,940.581 M2242.484,838.653
		c0,0,445.637-310.524,459.859-286.82C2742.641,606.353,2519.822,746.207,2242.484,838.653"/>
	<path fill="#FFFFFF" d="M483.634,1255.847c0,0,184.892-21.333,376.896-111.409L516.82,1324.589L483.634,1255.847L483.634,1255.847z
		 M1519.507,1388.591c40.297,125.632,11.852,248.894-64.002,272.598c-75.853,26.074-173.04-56.89-213.337-182.522
		c-40.297-125.632-11.853-248.894,64.001-272.598C1384.392,1179.994,1479.208,1262.958,1519.507,1388.591"/>
	<path d="M1384.392,1445.48c33.186,56.89,26.074,123.262-11.852,144.596c-37.927,21.333-94.816-9.482-128.003-66.372
		c-33.186-56.89-26.074-123.262,11.853-144.596C1294.316,1357.774,1351.207,1386.22,1384.392,1445.48"/>
	<path fill="#FFFFFF" d="M1839.513,1267.699c33.187,128.003-2.37,248.894-80.594,270.228s-168.3-66.372-203.856-194.374
		c-30.815-128.003,4.741-248.895,82.965-270.228C1716.251,1051.991,1806.327,1139.696,1839.513,1267.699"/>
	<path d="M1690.177,1331.7c26.074,54.52,18.964,113.78-18.964,132.743c-35.556,16.594-87.705-11.852-113.779-68.742
		c-26.075-54.52-18.964-113.779,18.963-132.743C1611.953,1246.365,1664.102,1277.181,1690.177,1331.7"/>
	<path fill="#DF4601" d="M1197.129,599.241c35.556,21.334,68.742,21.334,109.039,0c7.111,26.075,14.223,61.631,14.223,90.076
		c0,23.704-2.37,54.52-14.223,73.482c-7.111,11.853-14.223,16.594-26.074,18.964c-37.927,7.111-71.112-49.779-82.965-92.446
		C1190.018,660.872,1190.018,627.687,1197.129,599.241 M1301.427,582.648c-21.333,9.481-37.926,9.481-54.52,2.37
		c-18.963-7.111-35.556-23.704-45.037-42.667c-7.111-16.593-7.111-35.557,2.37-49.779c4.741-7.11,16.593-11.852,28.444-11.852
		C1261.13,480.721,1287.205,535.24,1301.427,582.648 M1355.947,535.24c-4.74,9.481-9.481,18.963-16.593,26.074
		c-28.444-78.224-68.741-118.521-109.039-116.15c-23.704,2.37-45.038,11.853-56.89,30.815
		c-14.223,18.964-18.963,47.408-9.482,71.112c-21.333,52.149-18.963,113.78-4.74,161.188
		c16.593,49.779,40.297,85.335,73.482,101.928c18.964,11.853,42.668,11.853,59.261,7.111c23.704-7.111,40.297-23.704,52.149-49.778
		c26.074-54.52,21.334-135.114,2.37-189.634c9.481-7.111,21.334-23.704,26.075-37.926L1355.947,535.24L1355.947,535.24z
		 M1400.986,575.537c0-4.741,0-7.111,2.37-14.223h-2.37c-2.371,0-4.741,4.741-7.111,9.481c-4.741,9.482-7.111,23.705-2.371,30.816
		c0,2.37,4.741,2.37,11.853,0c2.37,0,4.741-2.371,4.741-4.741c4.74-4.741,4.74-14.223,2.37-18.964
		C1408.097,575.537,1405.726,575.537,1400.986,575.537 M1474.468,618.205l-16.593-14.223l-4.741-4.741
		c-4.74-2.37-7.111-7.111-7.111-11.852v-2.371h-2.37l-18.964,14.223c-2.37,7.111-4.74,21.334-4.74,33.186l-2.371,37.927
		c-2.37,23.704-7.11,42.668-18.963,49.779l-4.74,21.334h2.37c14.222-7.111,23.704-21.334,30.815-45.038l2.37-21.334l2.37-18.963
		v-4.741l2.371-18.964c0-4.74,2.37-9.481,2.37-14.222v-2.371l2.37,2.371c4.741,7.11,18.963,18.963,26.074,23.704l2.371,2.37h-2.371
		c-23.704,9.481-28.444,26.074-23.704,33.186c2.371,4.741,7.111,9.481,9.482,11.853c4.74,2.37,11.852,2.37,18.963-2.371
		c14.223-7.11,23.704-23.703,18.964-40.297v-2.37l-2.371-7.111C1483.95,630.057,1481.58,625.315,1474.468,618.205 M1472.097,665.613
		c-2.37,4.74-4.74,7.111-9.481,9.481s-9.481,0-11.852-2.37c-4.741-2.371-4.741-7.111-2.371-11.853
		c2.371-4.74,9.482-9.481,21.334-14.223h2.37c0,0,0,2.371,2.371,2.371C1474.468,656.132,1474.468,663.243,1472.097,665.613"/>
	<path fill="#FFFFFF" d="M2109.74,2756.321h-33.186v90.076h-21.334v-90.076h-33.186v-18.964h87.705V2756.321L2109.74,2756.321z
		 M2261.447,2846.397h-21.334v-87.706l-33.186,87.706h-21.334l-30.816-87.706v87.706h-21.334v-111.41h37.928l26.074,71.112
		l26.074-71.112h37.928V2846.397L2261.447,2846.397z"/>
</g>
</svg>
